<!-- by TradingView --><svg xmlns="http://www.w3.org/2000/svg" width="56" height="56"><path fill="url(#auz2idcct)" d="M0 0h56v56H0z"/><path fill-rule="evenodd" d="M12 15h32v18.31l-.01.02.01-.01V34h-.53l.04-.04-1.21-1.7a4 4 0 11.1-4.38l1.4-1.48a6 6 0 10-9.27 7.6h-1.67c.3-1.1.33-3.48-2.06-4.14a2.83 2.83 0 001.54-2.75c-.1-2.03-1.63-3.11-4.01-3.11H23v10h-1l-4-10h-2l-4 10V15zm13 19h4a1.5 1.5 0 000-3h-4v3zm-8-7l3 7h-6l3-7zm-.02-9h-1.79v3h1.79c.55-.03 1-.26 1-.8 0-.42-.42-.69-.63-.77.14-.04.43-.24.43-.7 0-.48-.53-.73-.8-.73zm-1.16.55h.92a.35.35 0 110 .71h-.92v-.7zm1.14 1.19h-1.14v.7h1.14a.35.35 0 000-.7zM21.65 18l-1.4 3h.74l.34-.73h1.21l.4.73h.74l-1.45-3h-.58zm-.1 1.7l.41-.8.43.8h-.83zm4.77-1.7v3H27v-1.8l1.58 1.8h.64v-3h-.64v1.9L26.9 18h-.6zm14.32 1.5a1.5 1.5 0 11-3-.01 1.5 1.5 0 013 0zm-.67 0a.83.83 0 11-1.65 0 .83.83 0 011.65 0zm-5.24.92a1.5 1.5 0 11-.03-1.86l-.47.5a.86.86 0 100 .91l.5.45zM28.5 26H25v3h3.5a1.5 1.5 0 000-3zM15.2 36H12v6h3.2c1-.06 1.8-.52 1.8-1.59 0-.85-.76-1.4-1.13-1.55.26-.08.77-.47.77-1.42 0-.94-.96-1.35-1.44-1.44zM13 37h1.77a.75.75 0 010 1.5H13V37zm2.08 2.5H13V41h2.08a.75.75 0 000-1.5zM24 42l2.5-6h1l2.5 6h-1.01l-.46-1h-3.08l-.43 1H24zm3-4.5L25.9 40h2.21L27 37.5zM38 36h-1v6h1v-6zm2 0h1v5h3v1h-4v-6zm-5.17.8c-.16-.27-.72-.8-1.7-.8-1.25 0-1.96.8-1.94 1.82 0 1.03 1.01 1.53 2.24 1.84.98.25.58 1.34-.16 1.34a2 2 0 01-1.6-.7l-.67.78c.32.3 1.2.9 2.12.92 1.16.01 1.9-.75 1.88-1.7-.02-.97-.38-1.45-2.12-1.93-.22-.06-.63-.35-.63-.71 0-.48.55-.66.87-.66.33 0 .79.19 1.17.56l.54-.76zM21.06 36H18v6h1v-2h1.34l1.37 2H23l-1.54-2.2c.24 0 1.37-.4 1.34-1.85A1.9 1.9 0 0021.06 36zM19 37h1.79a1 1 0 010 2H19v-2z" fill="#fff"/><defs><linearGradient id="auz2idcct" x1="10.42" y1="9.71" x2="68.15" y2="76.02" gradientUnits="userSpaceOnUse"><stop stop-color="#1A1E21"/><stop offset="1" stop-color="#06060A"/></linearGradient></defs></svg>