<!-- by TradingView --><svg width="56" height="56" fill="none" xmlns="http://www.w3.org/2000/svg"><path fill="#921535" d="M0 0h56v56H0z"/><path fill-rule="evenodd" clip-rule="evenodd" d="M13 45h7.034S18.304 30.207 29 27.009c0 0-15.326-.978-16 17.991ZM32.455 37H39s-1.068-9.723-10-10c0-.023 3.41 1.244 3.455 10Z" fill="#F0F3FA"/><path fill-rule="evenodd" clip-rule="evenodd" d="M39 23.546V17s-9.724 1.068-10 10c0 0 1.267-3.41 10-3.454Z" fill="#F0F3FA"/><path fill-rule="evenodd" clip-rule="evenodd" d="M19 23.546V17s9.723 1.068 10 10c.023 0-1.244-3.41-10-3.454Z" fill="#F0F3FA"/><path fill-rule="evenodd" clip-rule="evenodd" d="M20.027 13h17.946A5.028 5.028 0 0 1 43 18.027v17.946A5.028 5.028 0 0 1 37.973 41H22v-2h15.265A3.749 3.749 0 0 0 41 35.265v-16.53A3.749 3.749 0 0 0 37.265 15h-16.53A3.749 3.749 0 0 0 17 18.735v10.352c-.652.518-1.398 1.198-2 1.982V18.027C15 15.275 17.252 13 20.027 13Z" fill="url(#a)"/><defs><linearGradient id="a" x1="15.5" y1="14" x2="44" y2="41.5" gradientUnits="userSpaceOnUse"><stop offset=".038" stop-color="#FCD0B3"/><stop offset=".341" stop-color="#F18D20"/></linearGradient></defs></svg>