<!-- by TradingView --><svg width="56" height="56" viewBox="0 0 56 56" fill="none" xmlns="http://www.w3.org/2000/svg">
<rect width="56" height="56" fill="#F0F3FA"/>
<path fill-rule="evenodd" clip-rule="evenodd" d="M33.5168 29C33.8528 29.151 34.3375 29.3076 34.9705 29.4511C36.4749 29.792 38.6027 30 40.9876 30C43.3725 30 45.5003 29.792 47.0046 29.4511C47.6377 29.3076 48.1224 29.151 48.4584 29C48.1224 28.849 47.6377 28.6924 47.0046 28.5489C45.5003 28.208 43.3725 28 40.9876 28C38.6027 28 36.4749 28.208 34.9705 28.5489C34.3375 28.6924 33.8528 28.849 33.5168 29ZM40.9876 27C36.1134 27 32.1621 27.8954 32.1621 29C32.1621 30.1046 36.1134 31 40.9876 31C45.8618 31 49.8131 30.1046 49.8131 29C49.8131 27.8954 45.8618 27 40.9876 27Z" fill="#94999E"/>
<path fill-rule="evenodd" clip-rule="evenodd" d="M9.42156 21H6.45734C6.80813 21.2609 7.00002 21.7428 7.00002 22.0507V29.7319C6.98598 30.3406 6.61519 30.8309 6.45734 31H9.00061C10.1232 31 11.9824 30.2391 11.9999 28.1558C12.0139 26.4891 10.6026 25.843 9.89514 25.7283C10.1933 25.7283 11.6 25.3587 11.614 23.4457C11.6281 21.5326 10.1582 21.0181 9.42156 21ZM10.5604 23.5956C10.5336 22.2078 8.84231 21.9573 8.00002 22.0055V25.3947C8.55225 25.4107 10.5938 25.3304 10.5604 23.5956ZM8.00002 26.3547C9.25423 26.2259 10.9681 26.5685 10.9995 28.0344C11.0387 29.8668 8.9322 30 8.00002 30V26.3547Z" fill="#424950"/>
<path fill-rule="evenodd" clip-rule="evenodd" d="M13.3207 21H16.5004C17.3177 21 18.9676 21.5476 19.0289 23.7379C19.0289 24.4757 18.7866 26.3102 16.9324 26.786L19.4886 30.068C19.6993 30.3204 20.2012 30.8602 20.523 31H18.7224C18.409 30.5552 17.9222 29.9089 17.4192 29.2411C16.795 28.4123 16.1459 27.5506 15.7726 27H15V30.1845C15.0447 30.3981 15.309 30.8602 15.6002 31H13.3207C13.5187 30.877 13.9847 30.4835 14 29.8932V22.1068C13.9808 21.8091 13.7651 21.1709 13.3207 21ZM15 22.0064C16.1625 22.0064 17.9995 22.1076 17.9995 23.8793C17.9995 25.9982 15.8646 25.9982 15 25.9982V22.0064Z" fill="#424950"/>
<path d="M22 21V22.6797C22.1824 22.188 22.5392 22.0389 22.7589 22H26.571L21.4272 31H28.4491V29.2503C28.2204 29.7348 27.5892 29.979 27.3022 30H23.3348L28.4491 21H22Z" fill="#424950"/>
<rect x="30.5" y="21" width="0.5" height="10" fill="#F29C1B"/>
<path fill-rule="evenodd" clip-rule="evenodd" d="M47.2459 22.0049C46.8622 22.025 46.3424 22.1083 45.6961 22.2698C44.1416 22.6583 42.0649 23.4454 39.851 24.55C37.6371 25.6546 35.7595 26.8404 34.5142 27.8487C33.9965 28.268 33.6173 28.6332 33.3705 28.9277C33.7542 28.9075 34.274 28.8242 34.9203 28.6627C36.4748 28.2742 38.5515 27.4871 40.7654 26.3826C42.9793 25.278 44.8569 24.0922 46.1022 23.0838C46.6199 22.6645 46.999 22.2993 47.2459 22.0049ZM41.2118 27.2774C45.7297 25.0233 48.9876 22.3851 48.4885 21.3849C47.9895 20.3847 43.9225 21.4011 39.4046 23.6552C34.8867 25.9092 31.6288 28.5474 32.1279 29.5476C32.6269 30.5479 36.6939 29.5314 41.2118 27.2774Z" fill="#424950"/>
<path fill-rule="evenodd" clip-rule="evenodd" d="M6.5193 32H6V36H6.5193V32ZM8.14016 33.1835L10.9825 35.9487H10.9986V32H10.4846L10.495 34.805L7.65794 32.0051H7.63117V36H8.15046L8.14016 33.1835ZM12.39 32L13.5034 34.7863L14.5796 32H15.1846L13.4768 36L11.7744 32H12.39ZM18.5325 32.0205H16V36H18.6075V35.5225H16.5356V34.1926H18.3184V33.715H16.5356V32.4981H18.5325V32.0205ZM21.4541 32.7035C21.19 32.5734 20.8599 32.4621 20.5601 32.4621C20.1499 32.4621 19.8802 32.6595 19.8802 32.9705C19.8802 33.0869 19.9195 33.1861 19.998 33.2683C20.2207 33.4916 20.551 33.6359 20.8515 33.7671C20.9265 33.7999 20.9996 33.8318 21.0687 33.8639C21.1865 33.9187 21.2918 33.9872 21.3845 34.0693C21.5784 34.2346 21.6951 34.5263 21.6951 34.8803C21.6951 35.5606 21.0569 36 20.4316 36C19.9234 36 19.4682 35.805 19.1575 35.6098L19.3877 35.2195C19.642 35.3923 20.0378 35.5635 20.3834 35.5635C20.7533 35.5635 21.1597 35.2996 21.1597 34.8803C21.1597 34.4081 20.608 34.1977 20.2091 34.0456C20.1508 34.0234 20.0957 34.0024 20.0462 33.982C19.6676 33.816 19.3448 33.4918 19.3448 33.0116C19.3448 32.3929 19.9093 32.0178 20.4851 32C20.9891 32 21.362 32.1538 21.6522 32.3235L21.4541 32.7035ZM24.8277 32H22.258V32.4981H23.2698V36H23.7891V32.4981H24.8277V32ZM25.6524 32H26.1717V36H25.6524V32ZM26.9999 32L27 36H27.4978V33.492L29.0352 35.3633H29.0459L30.4754 33.4248V36H31V32L29.0463 34.5998L26.9999 32ZM32 32H34.538V32.4827H32.5412V33.7595H34.3239V34.2371H32.5412V35.5225H34.613V36H32V32ZM36.1454 33.1783L38.9878 35.9435H39.0038V32H38.4899L38.5003 34.7998L35.6632 32H35.6364V36H36.1557L36.1454 33.1783ZM40 32H42.5751V32.4775H41.5365V36H41V32.4775H40V32ZM44.9011 32C43.8624 32 42.9408 32.7805 42.9257 33.9769C42.9105 35.1733 43.814 36 44.9011 36C45.9357 36 46.901 35.1733 46.882 33.9769C46.863 32.7805 45.9893 32 44.9011 32ZM44.9118 35.5225C44.0903 35.5225 43.461 34.7514 43.461 33.982C43.461 33.1916 44.0908 32.4775 44.9011 32.4775C45.6931 32.4775 46.3466 33.1852 46.3466 33.9769C46.3466 34.7597 45.719 35.5225 44.9118 35.5225ZM48.865 32.4621C49.1648 32.4621 49.495 32.5734 49.7591 32.7035L49.9572 32.3235C49.667 32.1538 49.2941 32 48.7901 32C48.2143 32.0178 47.6498 32.3929 47.6498 33.0116C47.6498 33.4918 47.9725 33.816 48.3511 33.982C48.4007 34.0024 48.4557 34.0234 48.514 34.0456C48.9129 34.1977 49.4646 34.4081 49.4646 34.8803C49.4646 35.2996 49.0582 35.5635 48.6884 35.5635C48.3427 35.5635 47.9469 35.3923 47.6926 35.2195L47.4624 35.6098C47.7732 35.805 48.2283 36 48.7366 36C49.3618 36 50 35.5606 50 34.8803C50 34.5263 49.8833 34.2346 49.6895 34.0693C49.5967 33.9872 49.4914 33.9187 49.3736 33.8639C49.3045 33.8318 49.2314 33.7999 49.1564 33.7671C48.8559 33.6359 48.5256 33.4916 48.3029 33.2683C48.2244 33.1861 48.1851 33.0869 48.1851 32.9705C48.1851 32.6595 48.4548 32.4621 48.865 32.4621Z" fill="#94999E"/>
</svg>
