<!-- by TradingView --><svg width="56" height="56" fill="none" xmlns="http://www.w3.org/2000/svg"><path fill="#F0F3FA" d="M0 0h56v56H0z"/><path fill-rule="evenodd" clip-rule="evenodd" d="M7.212 23H21l-2 13h-1s-.268-3.64-3-7l1.934-2.602s.063-.115.066-.221c.003-.09-.037-.174-.194-.177a.736.736 0 0 0-.169.02L14 28s-2.32-2.816-7-3.845c0 .021.212-1.155.212-1.155Z" fill="#009FE3"/><path fill-rule="evenodd" clip-rule="evenodd" d="M6.636 26 5.13 33.314s-.168.472-.12 1.02c.066.76.54 1.666 2.383 1.666h8.607s.117-2.804-2.39-5.833L9.835 32.14 9.7 32l2.953-3s-2.203-2.394-6.018-3ZM23 23.002h4.426S31 22.834 31 25.9c0 2.204-2 3.1-2 3.1s1.5.931 1.5 2.905C30.5 33.88 28.715 36 26.249 36h-3.51s-1.718.018-1.739-1.733c.416-2.404.745-4.22 1.052-5.912.316-1.747.61-3.361.948-5.353ZM25.145 25h2.307s1.088-.084 1.088 1.218S27.32 28 26.23 28h-1.752l.667-3Zm1.143 6H24l-.75 3h1.954l.265.002c1.08.013 2.53.03 2.53-1.635C28 31 26.644 31 26.289 31ZM43 23.002h4.426S51 22.834 51 25.9c0 2.204-2 3.1-2 3.1s1.5.931 1.5 2.905C50.5 33.88 48.715 36 46.249 36h-3.51s-1.718.018-1.739-1.733c.416-2.404.745-4.22 1.052-5.912.316-1.747.61-3.361.948-5.353ZM45.145 25h2.307s1.088-.084 1.088 1.218S47.32 28 46.23 28h-1.752l.667-3Zm1.143 6H44l-.75 3h1.955l.264.002c1.08.013 2.53.03 2.53-1.635C48 31 46.644 31 46.289 31ZM31.115 34.155 33 23h4.8s3.2-.021 3.2 3.276c0 3.297-3 4.117-3 4.117L41 36h-2.5l-3-5H34l-1 5c-1.694 0-2.004-.656-2-1.172.003-.336.115-.673.115-.673ZM37.321 25H35l-.609 3h1.984C37.479 28 39 28 39 26.438 39 25 37.682 25 37.32 25Z" fill="#023E7C"/></svg>