<!-- by TradingView --><svg width="56" height="56" fill="none" xmlns="http://www.w3.org/2000/svg"><path fill="#ED1C24" d="M0 0h56v56H0z"/><path d="M23 32.5c0-1.726.025-2.5-1.5-2.5-1.051 0-2.035.064-2.64.416-.191-.256-.446-.416-1.325-.416-1.306 0-2.006.288-3.535.448V37h1v-5.018c0-.576 1.198-.982 1.93-.982.828 0 1.07.381 1.07 1.5V37h1V31.853c0-.415 1.194-.853 1.895-.853.955 0 1.105.413 1.105 1.5V37h1v-4.5ZM25 40v-3.348c.226.218.79.348 1.5.348 1.613 0 3-1.41 3-3.522 0-2.95-1.048-3.478-2.823-3.478-1.129 0-1.58.28-2.677.435.02 3.187 0 6.065 0 9.565h1Zm3.5-6.522c0 1.553-.758 2.522-2.016 2.522-.678 0-1.484-.248-1.484-.497v-4.006c0-.28.774-.497 1.484-.497 1.258 0 2.016.925 2.016 2.478ZM31 27v10h1V27h-1Z" fill="#F0F3FA"/><path fill-rule="evenodd" clip-rule="evenodd" d="m46 15-14 8 14 8c1.299-2.362 2-5.107 2-8 .029-2.893-.672-5.609-2-8Z" fill="#F9CF00"/><path d="M8 35c0 1.177.818 2 2.394 2H13v-4.771c.03-1.941-.758-2.229-2.242-2.229-.758 0-1.637.318-2.303.54v.905C9.12 31.16 9.758 31 10.425 31c.848 0 1.575.59 1.575 1.29v.35c-2.606.065-4 1.087-4 2.36Zm4 .618c-.06.287-.697.396-1.454.396-.758 0-1.213-.446-1.213-1.05 0-.891.97-1.368 2.667-1.368v2.022ZM33 35c0 1.177.818 2 2.394 2H38v-4.771c.03-1.941-.758-2.229-2.242-2.229-.758 0-1.637.318-2.303.54v.905c.666-.286 1.303-.445 1.97-.445.848 0 1.575.59 1.575 1.29v.35c-2.606.065-4 1.087-4 2.36Zm4 .535c-.06.287-.697.479-1.455.479-.757 0-1.212-.446-1.212-1.05 0-.891.97-1.368 2.667-1.368v1.94Z" fill="#F0F3FA"/></svg>