<!-- by TradingView --><svg width="56" height="56" fill="none" xmlns="http://www.w3.org/2000/svg"><path fill="#F0F3FA" d="M0 0h56v56H0z"/><path d="M7 27v5H6v-5H4v-1h5v1H7ZM10 32v-6h3.016c1.241 0 1.984.463 1.984 1.77 0 .87-.147 1.535-1.087 1.714v.027c.68.028 1.087.415 1.087 1.162V32h-1v-1.106c0-.608-.522-.894-1.147-.894H11v2h-1Zm1-3h1.826c.74 0 .978-.325.978-1.037 0-.688-.168-.963-.896-.963H11v2ZM18.587 26C20.637 26 21 27.09 21 29c0 2.113-.35 3-2.587 3C16.408 32 16 30.892 16 29c0-2.157.295-3 2.587-3Zm-.075 1c-1.59 0-1.512.61-1.512 2 0 1.292.172 2.064 1.537 2.064C19.983 31.064 20 30.281 20 29c0-1.344-.03-2-1.488-2ZM31.587 26C33.637 26 34 27.09 34 29c0 2.113-.35 3-2.587 3C29.408 32 29 30.892 29 29c0-2.157.295-3 2.587-3Zm-.075 1c-1.59 0-1.512.61-1.512 2 0 1.292.172 2.064 1.537 2.064C32.983 31.064 33 30.281 33 29c0-1.344-.03-2-1.488-2ZM28 26v6h-1.5c-3.442-4.995-1.516-2.159-3.442-4.995H23V32h-1v-6h1.5c1.568 2.245 0 0 3.471 4.995H27V26h1ZM39 28.889 41 32h-1.402c-.532-.856-1.033-1.76-1.57-2.611H38c-.497.886-1.034 1.748-1.57 2.611H35l2-3.083L35.168 26h1.43c.493.78.962 1.574 1.374 2.389H38c.508-.755.942-1.616 1.43-2.389h1.43L39 28.889Z" fill="#2D3063"/><path fill-rule="evenodd" clip-rule="evenodd" d="M49 24a1 1 0 1 1-.001 2.001A1 1 0 0 1 49 24ZM45 24a1 1 0 1 1-.001 2.001A1 1 0 0 1 45 24ZM49 32a1 1 0 1 1-.001 2.001A1 1 0 0 1 49 32ZM45 32a1 1 0 1 1-.001 2.001A1 1 0 0 1 45 32ZM51 26a1 1 0 1 1-.001 2.001A1 1 0 0 1 51 26ZM51 30a1 1 0 1 1-.001 2.001A1 1 0 0 1 51 30ZM43 26a1 1 0 1 1-.001 2.001A1 1 0 0 1 43 26ZM43 30a1 1 0 1 1-.001 2.001A1 1 0 0 1 43 30Z" fill="#82B729"/><path d="m45.026 24.696 2.003 1.973 2.002-1.973.286.32L47 27.279l-2.26-2.264.286-.319ZM51.314 27.056 49.426 29l1.888 1.944-.286.32L48.796 29l2.232-2.234.286.29ZM44.74 32.937 47 30.615l2.346 2.322-.315.319-2.002-2.031-1.974 2.03-.315-.318ZM42.846 30.944 44.934 29l-2.088-1.944.286-.32L45.564 29l-2.432 2.263-.286-.319Z" fill="#82B729"/><path fill-rule="evenodd" clip-rule="evenodd" d="M47 26c.564 0 1 .436 1 1 0 .564-.436 1-1 1-.564 0-1-.436-1-1 0-.564.462-1 1-1ZM49 28c.564 0 1 .436 1 1 0 .564-.436 1-1 1-.564 0-1-.436-1-1 0-.564.436-1 1-1ZM45 28c.564 0 1 .436 1 1 0 .564-.436 1-1 1-.564 0-1-.436-1-1 0-.564.436-1 1-1ZM47 30c.564 0 1 .436 1 1 0 .564-.436 1-1 1-.564 0-1-.436-1-1 0-.564.462-1 1-1Z" fill="#2D3063"/></svg>