<!-- by TradingView --><svg width="56" height="56" viewBox="0 0 56 56" fill="none" xmlns="http://www.w3.org/2000/svg">
<rect width="56" height="56" fill="#22A3DC"/>
<path fill-rule="evenodd" clip-rule="evenodd" d="M5 21H7V25.1625C7.30432 24.7727 8.1176 23.9858 9.15906 24C10.4609 24.0177 11.9656 25.5178 11.9994 28.5297C12.0332 31.5415 10.6469 32.888 9.05762 32.9943C8.58987 33.0357 7.47853 32.8703 6.77521 31.8782L6.60614 33H5V21ZM7 26.7776C7.24859 26.4056 7.89493 25.6686 8.49156 25.6969C9.23734 25.7323 9.99969 26.3639 9.99969 28.6025C9.99969 30.764 9.36992 31.384 8.49156 31.384C7.78887 31.384 7.2044 30.7344 7 30.4096V26.7776Z" fill="white"/>
<path fill-rule="evenodd" clip-rule="evenodd" d="M36 21H34V25.1625C33.6957 24.7727 32.8824 23.9858 31.8409 24C30.5391 24.0177 29.0344 25.5178 29.0006 28.5297C28.9668 31.5415 30.3531 32.888 31.9424 32.9943C32.4101 33.0357 33.5215 32.8703 34.2248 31.8782L34.3939 33H36V21ZM34 26.7776C33.7514 26.4056 33.1051 25.6686 32.5084 25.6969C31.7627 25.7323 31.0169 26.441 31.0003 28.6025C30.9837 30.7639 31.6301 31.384 32.5084 31.384C33.2111 31.384 33.7956 30.7344 34 30.4096V26.7776Z" fill="white"/>
<path fill-rule="evenodd" clip-rule="evenodd" d="M13.4266 26.2718C13.4813 25.5032 14.2532 23.9728 16.9035 24.0004C19.5538 24.0279 20.0601 25.9047 20 26.8396V31.5201C20.0109 31.8241 20.095 32.7109 20.2 33H18.2319C18.1663 32.8394 18.0253 32.2325 17.9859 31.9159C17.6415 32.2773 16.6608 33 15.4931 33C14.0334 33 13.0166 32.088 13.0002 30.6425C12.9838 29.1971 13.9491 27.7344 18 27.3559V26.5471C17.9945 26.1857 17.7563 25.4665 16.9035 25.4802C15.8375 25.4974 15.4439 26.0481 15.3455 26.6331L13.4266 26.2718ZM18 28.9586V30.5468C17.6634 30.8697 16.7853 31.5187 15.9654 31.5314C15.1454 31.5441 14.9812 30.8803 15.0016 30.5468C15.022 30.1338 15.6502 29.2381 18 28.9586Z" fill="white"/>
<path fill-rule="evenodd" clip-rule="evenodd" d="M27.998 33V26.6102C28.032 25.7302 27.6343 23.9762 25.7721 24.0002C24.4656 24.0171 23.5358 24.8715 23 25.677V24H21V33H23V26.5884C23.2642 26.2673 24.0091 25.6717 24.7827 25.6952C25.7721 25.7252 26.0145 26.4902 26 26.9252V33H27.998Z" fill="white"/>
<path fill-rule="evenodd" clip-rule="evenodd" d="M43.6313 29C43.8034 27.3568 43.3784 24.0463 40.3015 24.0005C37.2247 23.9546 36.5979 27.3059 36.6691 28.9873C36.6869 30.3375 37.4383 33.0303 40.3015 32.9997C41.1918 33.0125 43.1042 32.5221 43.6313 30.4585L41.9041 30.1337C41.8091 30.6114 41.3806 31.5667 40.4262 31.5667C39.2332 31.5667 38.6634 30.4139 38.6812 29H43.6313ZM38.6812 27.7262C38.6871 26.9747 39.0159 25.4793 40.2837 25.5098C41.5515 25.5404 41.7854 27.0002 41.7438 27.7262H38.6812Z" fill="white"/>
<path d="M47.1181 24.0013C49.1013 23.9507 49.7282 25.4001 49.7938 26.1311L48.0417 26.4699C47.9844 25.8072 47.4921 25.525 47.1181 25.5004C46.7442 25.4759 46.0114 25.6477 46 26.5803C45.9908 27.3265 46.8853 27.603 47.3891 27.648C49.8164 28.1388 50.011 29.6605 49.9996 30.3274C49.9881 30.9942 49.7362 32.9248 46.9769 32.9984C44.7694 33.0573 44.0725 31.4277 44 30.6055L45.7803 30.3274C45.8983 31.0865 46.3222 31.5293 46.9769 31.5293C47.6315 31.5293 48 30.9389 48 30.5382C48 30.1376 48.0822 29.7158 46.6066 29.4206C45.131 29.1254 44.0197 28.1976 44 27.0378C43.9803 25.878 44.6392 24.0646 47.1181 24.0013Z" fill="white"/>
<path fill-rule="evenodd" clip-rule="evenodd" d="M37.2959 24C38.602 21.8974 40.8954 20.5027 43.5064 20.5027C47.5703 20.5027 50.8647 23.8814 50.8647 28.0493C50.8647 29.9435 50.1843 31.6748 49.0604 32.9999H49.7874C51.1589 31.5131 52 29.5063 52 27.298C52 22.7151 48.3776 19 43.909 19C40.5832 19 37.7261 21.058 36.4823 24H37.2959Z" fill="#F2B536"/>
</svg>
