<!-- by TradingView --><svg xmlns="http://www.w3.org/2000/svg" width="56" height="56"><path d="M0 28a28 28 0 1156 0 28 28 0 01-56 0z" fill="#F0F3FA"/><path d="M35.2 24.1c-12.29-6.05-20.59 4.53-22.2 8.4 7.92-11.89 16.62-8.27 20.64-5.87.75.45 1.72.22 2.15-.55.4-.7.14-1.61-.59-1.97z" fill="#AA231C"/><path d="M38.06 24.55A13.52 13.52 0 0028 16.23v5.24c-1.39.11-2.72.27-4 .63V12.06a17.5 17.5 0 0117.05 9.4l-2.99 3.09zM24 38.17V24.9c1.3-.16 2.58-.02 3.8.12l.2.02v14.58a8.11 8.11 0 01-4-1.45z"/><path d="M12.94 36.16c11.72 15.98 31 5.7 29.56-9.66 0 7-5.45 13.96-13.23 14.12-3.7.07-7.79-1.87-11.71-7.27a2.88 2.88 0 00-3.9-.79 2.54 2.54 0 00-.72 3.6z" fill="#B2B2B2"/></svg>