<!-- by TradingView --><svg width="56" height="56" viewBox="0 0 56 56" fill="none" xmlns="http://www.w3.org/2000/svg">
<rect width="56" height="56" fill="#921535"/>
<path fill-rule="evenodd" clip-rule="evenodd" d="M18.5086 13H37.5183C40.5429 13 43 15.4815 43 18.5302V37.4963C43 40.5181 40.516 43 37.5187 43H21V41H37.3567C39.1657 41 41 39.1151 41 37.3615V18.6653C41 16.8576 39.1657 15 37.3567 15H18.6437C16.8343 15 15 16.8845 15 18.6653V29.7534C14.1627 30.509 13.7832 31.2911 13.1079 32.1815C13.081 32.2353 13.0269 32.2894 13 32.3163V18.5302C13 15.4815 15.4844 13 18.5086 13Z" fill="#F68B1F"/>
<path fill-rule="evenodd" clip-rule="evenodd" d="M18 18.0219C23.0076 18.2438 28.0837 22.4873 28.1577 27.5946C28.2077 22.0185 33.5134 18.1694 38 17.997V24.3374C34.7527 24.4364 30.6617 24.3132 28.133 27.7178C17.3988 27.7178 11.2753 36.4386 12.0687 45H18.9606C17.9684 38.1164 20.5964 29.8889 28.133 27.7178C33.7109 27.7178 37.6029 33.5592 37.9004 38H31.5541C31.4551 34.4967 31.331 30.0125 28.133 27.7178C25.7034 24.4119 21.6442 24.461 18 24.3624V18.0219Z" fill="white"/>
</svg>
