<!-- by TradingView --><svg width="56" height="56" viewBox="0 0 56 56" xmlns="http://www.w3.org/2000/svg"><path fill="#F0F3FA" d="M0 0h56v56H0z"/><path d="M15.26 37.68a16.04 16.04 0 0 0 7.26 5.36l1.31-3.78a12.03 12.03 0 0 1-5.29-3.88l-3.28 2.3Z" fill="#DCCF0F"/><path d="M16.01 28.5c.1 2.24.8 4.31 1.95 6.07L13.5 37c-1.6-2.4-2.4-5.4-2.5-8.5h5.01ZM16.01 28H11c.08-2.64.8-5.83 2-8l4.48 2.22A14.14 14.14 0 0 0 16.01 28Z" fill="#002D5E"/><path d="M23.13 17.03c-2.1.93-3.87 2.44-5.13 4.33l-3.47-2a16.06 16.06 0 0 1 7.1-6.05l1.5 3.72ZM31.68 16.57a12 12 0 0 0-7.62.1l-1.5-3.72A15.97 15.97 0 0 1 33 12.79l-1.31 3.78ZM37.6 20.8c-1.28-1.7-3-3.05-4.98-3.88l1.3-3.79a16.05 16.05 0 0 1 6.95 5.37l-3.27 2.3ZM32.96 38.93c2.2-1 4.06-2.66 5.3-4.71l3.47 2a16.06 16.06 0 0 1-7.29 6.43l-1.48-3.72ZM24.78 39.56a12.01 12.01 0 0 0 7.25-.25l1.49 3.71a15.97 15.97 0 0 1-10.05.33l1.31-3.79Z" fill="#DCCF0F"/><path d="M18.53 35.38a12.03 12.03 0 0 0 5.29 3.88l1.3-3.79a8.02 8.02 0 0 1-3.3-2.39l-3.29 2.3Z" fill="#002D5E"/><path d="M20 28.5a7.95 7.95 0 0 0 1.23 3.77l-3.28 2.3A11.94 11.94 0 0 1 16 28.5h4ZM20.94 24.22c-.53.99-.86 2.6-.93 3.78H16c.08-1.91.6-4.2 1.47-5.78l3.47 2Z" fill="#DCCF0F"/><path d="M24.6 20.75a8.03 8.03 0 0 0-3.13 2.62l-3.48-2a12.05 12.05 0 0 1 5.13-4.34l1.48 3.72ZM30.36 20.36a8 8 0 0 0-4.83.02l-1.49-3.72a11.98 11.98 0 0 1 7.63-.09l-1.3 3.79ZM34.31 23.1a8.03 8.03 0 0 0-3.01-2.39l1.3-3.79c2 .83 3.71 2.18 4.99 3.88l-3.28 2.3ZM31.46 35.21a8.04 8.04 0 0 0 3.33-3l3.47 2a12.05 12.05 0 0 1-5.31 4.72l-1.49-3.72ZM26.08 35.77a8.02 8.02 0 0 0 4.45-.18l1.49 3.72a11.98 11.98 0 0 1-7.25.25l1.31-3.79Z" fill="#002D5E"/><path fill-rule="evenodd" d="M41 28a1 1 0 1 0 0-2 1 1 0 0 0 0 2Zm0 2a3 3 0 1 0 0-6 3 3 0 0 0 0 6Z" fill="#DCCF0F"/></svg>