<!-- by TradingView --><svg width="56" height="56" viewBox="0 0 56 56" fill="none" xmlns="http://www.w3.org/2000/svg">
<rect width="56" height="56" fill="#FDFC32"/>
<path fill-rule="evenodd" clip-rule="evenodd" d="M13 23L19.2441 27.1667L26.7441 22.1667L23.6221 20.0775L27.6831 17.378L36.4272 23.2113L22.061 32.7888L25.1831 34.878L43 23L28 13L13 23ZM43 33L36.7442 28.8334L29.2441 33.8334L32.3662 35.9107L28.3052 38.6221L19.561 32.7888L33.9272 23.2113L30.8052 21.1221L13 33L28 43L43 33ZM43 17.1667L39.8662 19.2559L36.7442 17.1667L43 13V17.1667ZM13 38.8333L16.1221 36.7441L19.2441 38.8333L13 43V38.8333Z" fill="#4A5CFB"/>
</svg>
