<!-- by TradingView --><svg width="56" height="56" viewBox="0 0 56 56" xmlns="http://www.w3.org/2000/svg"><path fill="#174735" d="M0 0h56v56H0z"/><path d="M49.87 28.58 48.5 24h-.85c.26.96 1.22 4.75 1.34 5.25V33h1v-3.84L51 24h-.23l-.9 4.58ZM42 24v9h1v-9h-1Zm-3.49 2.11L40 30.45V24h.25v9h-.24a393.8 393.8 0 0 0-2.78-8v8H37v-9h.8l.7 2.08.01.03Zm-3.15 3.75c0 1.56-.28 2.7-1.29 2.7-1 0-1.07-.9-1.07-2.55V24h-1v5.71c0 2.33.6 3.29 1.83 3.29 1.2 0 1.77-.97 1.77-3.05V24h-.24v5.86Zm-7.86-5.7V24h4v.15H30.27c-.27.01-.27.14-.27.8V33h-1V24.95c0-.66 0-.79-.28-.8H27.5Zm16-.16v.15H44.71c.29.01.29.14.29.8V33h1v-8.06c0-.65 0-.78.27-.79h1.23V24h-4ZM25 28.1h.43c.72 0 .8-.7.8-2 0-1.2-.09-1.95-.75-1.95h-.2c-.3 0-.3.14-.29.58l.01.38v3Zm2.09 3.85c.01.1.04.2.07.29.07.17.2.38.42.39-.11.23-.28.37-.52.37-.61 0-1-.55-1.06-2.6-.04-1.33-.12-2.1-.8-2.1H25V33h-1v-9h1.62c.71 0 1.58.3 1.58 2.02 0 1.51-.7 2.1-1.41 2.21.68.14 1.07.88 1.18 2.2l.05.7c.02.37.04.64.07.82Zm-15.6-3.14h-.2a.58.58 0 0 1-.29-.06v-3.88c-.02-.62-.02-.72.38-.72h.19c.93 0 .93.93.93 2.25 0 1.6-.33 2.38-1 2.41Zm.2-4.81H10v9h1v-4.07c.09.04.24.08.58.06.82-.03 1.92-.5 1.92-2.61 0-1.76-.98-2.38-1.8-2.38Zm4.1 4.81h.2c.68-.03 1.01-.8 1.01-2.4 0-1.33 0-2.26-.93-2.26h-.2c-.4 0-.39.1-.38.72l.01.5v3.38c.08.04.15.06.3.06ZM14.5 24h1.7c.82 0 1.8.62 1.8 2.38 0 2.1-1.1 2.58-1.92 2.61-.34.02-.5-.02-.58-.06V33h-1v-9Zm-7.52 8.81c-1 0-.99-1.8-.98-3.84v-.99c0-2.04-.01-3.8.98-3.8C8 24.17 8 26.07 8 28.21v.56c0 2.11 0 4.03-1.02 4.03ZM7 24C5.78 24 5 25.83 5 28.46c0 2.7.75 4.54 2 4.54 1.22 0 2-1.84 2-4.46C9 25.83 8.22 24 7 24Zm13 4.97c0 2.04 0 3.84 1 3.84C22 32.81 22 30.9 22 28.8V28.22c0-2.14 0-4.05-1.02-4.05-1 0-.99 1.77-.98 3.81a159.62 159.62 0 0 1 0 .99Zm-.99-.5c0-2.64.78-4.47 2-4.47s2 1.83 2 4.54c0 2.62-.78 4.46-2 4.46-1.25 0-2-1.84-2-4.54Z" fill="#fff"/></svg>