<!-- by TradingView --><svg width="56" height="56" fill="none" xmlns="http://www.w3.org/2000/svg"><path fill="#F0F3FA" d="M0 0h56v56H0z"/><circle cx="28" cy="28" r="17" fill="url(#a)"/><path d="M36.768 35.807s-3.925-.19-8.766-.19c-4.844 0-8.767.19-8.767.19s3.923.19 8.767.19c4.841 0 8.766-.19 8.766-.19ZM20.403 37.183s3.4.195 7.591.195c4.204 0 7.6-.195 7.6-.195S32.198 37 27.994 37c-4.191 0-7.59.183-7.59.183ZM33.505 38.816s-2.463-.19-5.503-.19-5.505.19-5.505.19 2.466.186 5.506.186 5.502-.186 5.502-.186ZM36.425 33.691h-1.03V35h-.2v-1.5h1.426V35h-.196v-1.309ZM18 24.208v5.889c0 1.345.29 2.296.708 2.903h2.699C20.899 32.42 20 31.318 20 29.575V22.66c0-1.345-.205-2.289-.627-2.892a12.256 12.256 0 0 0-1.812 2.548c.185.52.438 1.143.438 1.893Z" fill="#fff"/><path d="M17 32.996h1.297c-.41-.637-.806-1.58-.806-2.9v-5.888a5.55 5.55 0 0 0-.214-1.564A12.297 12.297 0 0 0 16 28.104c0 1.741.361 3.393 1 4.892ZM23 29.151V21.855c0-2.398-.897-3.71-1.213-4.031a12.057 12.057 0 0 0-2.123 1.756c.46.63.938 1.632.938 3.078-.008.035-.008 2.768-.008 3.781v3.135c0 1.822.77 2.907 1.264 3.422h3.131a.5.5 0 0 0-.11-.07C24.853 32.91 23 31.814 23 29.152ZM38 24.208V27.366l.002.996v1.735c0 1.345-.298 2.296-.715 2.903H34.59c.51-.58 1.41-1.682 1.41-3.425V22.66c0-1.345.205-2.289.623-2.892.71.768 1.325 1.616 1.816 2.548-.187.52-.44 1.143-.44 1.893Z" fill="#fff"/><path d="M38.994 32.996h-1.291c.41-.637.806-1.58.806-2.9v-5.888c0-.602.084-1.117.209-1.564A12.283 12.283 0 0 1 40 28.104c0 1.741-.364 3.393-1.006 4.892ZM32.794 29.151V21.855c0-2.398 1.104-3.71 1.415-4.031a11.781 11.781 0 0 1 2.125 1.756c-.457.63-.935 1.632-.935 3.078.003.035.003 2.768.003 3.781v3.135c0 1.822-.769 2.907-1.26 3.422h-3.133a.763.763 0 0 1 .11-.07c.03-.016 1.675-1.113 1.675-3.775ZM36.779 33.5h2.224l-.422 1.5h-1.802v-1.5ZM35.122 33.5H17.074c.296.812.605 1.338.723 1.5h16.64v-.87l.685-.63Z" fill="#fff"/><defs><linearGradient id="a" x1="15.34" y1="16.208" x2="35.609" y2="42.784" gradientUnits="userSpaceOnUse"><stop stop-color="#1881B8"/><stop offset=".159" stop-color="#258CC1"/><stop offset=".398" stop-color="#145F9A"/><stop offset=".655" stop-color="#15528E"/><stop offset="1" stop-color="#2874B9"/></linearGradient></defs></svg>