<!-- by TradingView --><svg width="56" height="56" viewBox="0 0 56 56" xmlns="http://www.w3.org/2000/svg"><path fill="#FF7A01" d="M0 0h56v56H0z"/><path d="M19.5 25c2.23 0 3.5 1.57 3.5 3.8V34h-2v-4.9c0-1.27-.7-2.1-2-2.1-1.31 0-2 .8-2 2.1V34h-2v-9h2v1.23A3.01 3.01 0 0 1 19.5 25ZM27 26v4.78c0 .73.65 1.22 1.34 1.22H30v2h-1.66C26.11 34 25 32.92 25 30.76V21h2v3h3v2h-3ZM41 29.31c0 .32-.02.44-.07.69h-6.61c.1 1.17 1 2 2.18 2 .85 0 1.45-.3 1.8-1h2.47a4.37 4.37 0 0 1-4.23 3A4.39 4.39 0 0 1 32 29.5c0-2.63 1.92-4.5 4.54-4.5 2.5 0 4.46 1.77 4.46 4.31Zm-2.37-.63C38.61 27.52 37.6 27 36.5 27c-1.13 0-2 .58-2.16 1.68h4.3ZM45 26.5a4 4 0 0 1 1.39-1.1c.47-.27 1-.4 1.61-.4v2.35h-.6c-.7 0-1.24.17-1.61.5-.35.33-.79.9-.79 1.73V34h-2v-9h2v1.5ZM13 25v9h-2v-7H9v-2h4Z" fill="#FDFFFE"/><circle cx="11.5" cy="22.5" r="1.5" fill="#FDFFFE"/></svg>