<!-- by TradingView --><svg width="56" height="56" fill="none" xmlns="http://www.w3.org/2000/svg"><path fill="#F0F3FA" d="M0 0h56v56H0z"/><path fill-rule="evenodd" clip-rule="evenodd" d="M12 15h10L12 36V15Z" fill="#913F27"/><path fill-rule="evenodd" clip-rule="evenodd" d="M21.08 41H12l11-23v21.252c0 .979-.886 1.748-1.92 1.748Z" fill="#828D8F"/><path fill-rule="evenodd" clip-rule="evenodd" d="M29.987 15H44L33.188 39.13c-.64 1.345-2.063 2.084-3.627 1.815C28.067 40.676 27 39.4 27 37.988v-20.03C27 16.277 28.352 15 29.987 15Z" fill="#913F27"/><path fill-rule="evenodd" clip-rule="evenodd" d="M44 41h-6.74c-.796 0-1.448-.363-1.883-1.016a2.134 2.134 0 0 1-.145-2.178L38 32h6v9Z" fill="#828D8F"/><path d="m44 19-5 11h5V19Z" fill="#828D8F"/></svg>