<!-- by TradingView --><svg xmlns="http://www.w3.org/2000/svg" width="56" height="56" viewBox="0 0 56 56"><path fill="#023958" d="M0 0h56v56H0z"/><path d="m38.44 16.64-1.23-.72A45.36 45.36 0 0 1 29.6 28a45.28 45.28 0 0 1 7.6 12.08l1.23-.71A9.2 9.2 0 0 0 43 31.4V24.6a9.17 9.17 0 0 0-4.56-7.95Z" fill="#F0000A"/><path opacity=".8" d="M23.46 33.81a36.84 36.84 0 0 1 6.19 10.04 9 9 0 0 0 2.92-1.07l4.64-2.7A45.36 45.36 0 0 0 29.61 28a45.33 45.33 0 0 1-6.15 5.81Z" fill="#F0000A"/><path opacity=".6" d="M16.24 38.42c.41.35.85.67 1.32.94l5.88 3.41a9.06 9.06 0 0 0 6.2 1.08 36.8 36.8 0 0 0-6.18-10.04 44.56 44.56 0 0 1-7.22 4.61Z" fill="#F0000A"/><path opacity=".8" d="M29.6 28a45.28 45.28 0 0 0 7.61-12.08l-4.64-2.7a9.13 9.13 0 0 0-2.93-1.07 36.8 36.8 0 0 1-6.18 10.04A45.35 45.35 0 0 1 29.6 28Z" fill="#F0000A"/><path opacity=".6" d="M29.64 12.15a9.06 9.06 0 0 0-6.2 1.08l-5.88 3.4c-.47.28-.9.6-1.32.95a45.15 45.15 0 0 1 7.22 4.6 36.68 36.68 0 0 0 6.18-10.03ZM23.46 22.2a36.82 36.82 0 0 1-6.35 5.8 36.64 36.64 0 0 1 6.35 5.81 45.61 45.61 0 0 0 6.15-5.8 45.6 45.6 0 0 0-6.15-5.82Z" fill="#F0000A"/><path opacity=".4" d="M17.1 28c-1.3.94-2.67 1.8-4.1 2.56v.85a9.2 9.2 0 0 0 3.24 7.01 45.16 45.16 0 0 0 7.22-4.6A36.67 36.67 0 0 0 17.11 28ZM23.46 22.2a44.93 44.93 0 0 0-7.22-4.62A9.2 9.2 0 0 0 13 24.59v.85c1.43.76 2.8 1.62 4.1 2.56a36.88 36.88 0 0 0 6.36-5.8Z" fill="#F0000A"/></svg>