<!-- by TradingView --><svg width="56" height="56" viewBox="0 0 56 56" xmlns="http://www.w3.org/2000/svg"><path fill="#F0F3FA" d="M0 0h56v56H0z"/><path d="M33 43H17.31A4.34 4.34 0 0 1 13 38.65v-8.07A14.2 14.2 0 0 0 22.13 34H33v9Zm10-9v4.65c0 2.4-1.94 4.35-4.31 4.35H38v-9h5Zm-7.22-21h2.84A4.4 4.4 0 0 1 43 17.35V29H32.91a14.57 14.57 0 0 0 2.88-16Zm-18.47 0h12a9.51 9.51 0 0 1 2.07 5.99c0 5.3-3.68 10.01-9.25 10.01-5.58 0-8.2-3.58-9.13-7.87v-3.78c0-.38.06-.76.13-1.07a.92.92 0 0 0 .12-.44A4.42 4.42 0 0 1 17.31 13Z" fill="#D40000"/></svg>