<!-- by TradingView --><svg width="56" height="56" viewBox="0 0 56 56" xmlns="http://www.w3.org/2000/svg"><path fill="url(#an5w1yezo)" d="M0 0h56v56H0z"/><path d="M14 29.5v7.31l4 1.69V25l-5 4.5h1Z" fill="#7E2222"/><path d="M21 27.25 18 25v13.5l3-1.12V27.25Z" fill="#D42126"/><path d="M21 23.1h-2L28 11v33l-7-3.3V23.1Z" fill="#7E2222"/><path d="M37 23.1 28 11v33l7-3.3V23.1h2ZM43 29.5 38 25v13.5l4-1.62V29.5h1Z" fill="#D42126"/><path d="m38 25-3 2.25v10.13l3 1.12V25Z" fill="#7E2222"/><defs><linearGradient id="an5w1yezo" x1="10.42" y1="9.71" x2="68.15" y2="76.02" gradientUnits="userSpaceOnUse"><stop stop-color="#1A1E21"/><stop offset="1" stop-color="#06060A"/></linearGradient></defs></svg>