<!-- by TradingView --><svg width="56" height="56" viewBox="0 0 56 56" xmlns="http://www.w3.org/2000/svg"><path fill="#F0F3FA" d="M0 0h56v56H0z"/><path d="M28 28a8.98 8.98 0 0 1 9-8.99V9a19 19 0 0 0-19 19h10ZM32 41.86c-.32.3-.66.6-1 .88V28h1v13.86ZM28 28h2v15.5c-.33.23-.66.45-1 .66V28.03h-1v16.71c-.33.18-.66.34-1 .5V32.13c.64-1.24 1-2.64 1-4.13Zm-2 17.67V33.66c-.3.38-.64.73-1 1.05v11.32c.34-.1.67-.23 1-.36Zm-2 .67V35.49c-.32.21-.65.4-1 .58v10.5c.34-.06.67-.14 1-.23Zm-2 .42V36.5c-.33.11-.66.21-1 .29V46.9c.34-.04.67-.08 1-.14Zm-2 .21c-.33.02-.66.03-1 .03V37c.34 0 .67-.02 1-.05v10.02Zm13-6.12V28h1v11.67c-.32.4-.65.8-1 1.18Zm2-2.6V28h1v8.5c-.3.6-.64 1.2-1 1.76Zm2-4.15V28h1a19 19 0 0 1-1 6.1Z" fill="#0810FF"/></svg>