<!-- by TradingView --><svg width="56" height="56" viewBox="0 0 56 56" xmlns="http://www.w3.org/2000/svg"><path fill="#2B64C3" d="M0 0h56v56H0z"/><path d="M4 23v1.5h3V33h2v-8.5h3V23H4Zm9 10V23h6v1.5h-4V27h3v1.5h-3v3h4V33h-6Zm12.87-7h2.06a4.66 4.66 0 0 0-4.27-3C21.09 23 19 25.24 19 28s2.09 5 4.66 5a4.66 4.66 0 0 0 4.27-3h-2.06a2.7 2.7 0 0 1-2.08 1C22.25 31 21 29.66 21 28s1.25-3 2.8-3c.82 0 1.56.39 2.07 1Z" fill="#fff"/><path d="M30 33V23h4.19c.83.07 2.81.69 2.81 2.55 0 .57-.4 1.79-1.63 2.2.63.1 1.63.76 1.63 2.42 0 2.07-1.96 2.83-3.1 2.83H30Zm2-8.5V27h1.75a1.25 1.25 0 0 0 0-2.5H32Zm0 4.5v2.5h1.85c.63 0 1.15-.56 1.15-1.25S34.48 29 33.85 29H32Zm7.07-2.47-.64-.86L41.36 23H43v8.5h2V33h-6v-1.5h2v-6.2l-1.4 1.23h-.53Zm6.7-.86.65.86h.52l1.06-.86v5.83h-2V33h6v-1.5h-2V23h-1.3l-2.92 2.67Z" fill="#91F034"/></svg>