<!-- by TradingView --><svg width="56" height="56" viewBox="0 0 56 56" xmlns="http://www.w3.org/2000/svg"><path fill="#232452" d="M0 0h56v56H0z"/><path d="M16.32 17.6c-3 .5-4.13 4.72-4.32 6.78a12.59 12.59 0 0 1 4.84-2.3l5-.82c3.5-.57 4.23-5.74 4.15-8.26-.22 2.47-3.2 3.56-4.66 3.8l-5 .8ZM30.87 35.61c-4.08.53-5.61 5.15-5.87 7.39a19.14 19.14 0 0 1 6.56-2.51l6.8-.89c4.75-.62 5.74-6.27 5.63-9.01-.3 2.69-4.35 3.88-6.33 4.13l-6.8.9Z" fill="#F0F3FA"/><path d="m29.93 28.42 7.28-.9c2.12-.26 6.45-1.46 6.78-4.18.11 2.78-.94 8.48-6.04 9.1l-7.28.9c-1.18.15-2.7.59-4.1 1.13a4.6 4.6 0 0 1-3.24 2.18l-5.76.85A15.2 15.2 0 0 0 12 39.9c.22-2.14 1.52-6.55 4.98-7.06l5.76-.85c.73-.1 1.78-.37 2.76-.85 2.18-3 2.16-2.44 4.43-2.72ZM29.93 20.86l7.28-.84c2.12-.25 6.45-1.37 6.78-3.92.11 2.6-.94 7.95-6.04 8.53l-7.28.84c-1.18.14-2.7.56-4.1 1.07a4.61 4.61 0 0 1-3.24 2.04l-5.76.8A15.74 15.74 0 0 0 12 31.61c.22-2 1.52-6.14 4.98-6.61l5.76-.8c.73-.1 1.78-.35 2.76-.8 2.18-2.81 2.16-2.29 4.43-2.55Z" fill="#F0F3FA"/></svg>