<!-- by TradingView --><svg width="56" height="56" viewBox="0 0 56 56" xmlns="http://www.w3.org/2000/svg"><path fill="#F0F3FA" d="M0 0h56v56H0z"/><path d="m28 13.5 8 7.6V30h-7v-5h-2v5h-7v-8.9l8-7.6Zm-7 8.05V29h5v-5h4v5h5v-7.45l-7-6.66-7 6.66Z" fill="#7F96BE"/><path d="M10 34v-2h6v2h-2v7h-2v-7h-2ZM23 35h-2c0-.33-.2-1-1-1s-1 .5-1 1v3c0 .8.67 1 1 1h1v-2h2v4h-3.5C18 41 17 39.5 17 38v-3c0-1 0-3 3-3 2.4 0 3 2 3 3Z" fill="#55678B"/><path fill-rule="evenodd" d="M24 41h2l.5-2h1l.5 2h2l-2-9h-2l-2 9Zm3-5-.5 2h1l-.5-2ZM31 32v9h2v-3h1l1.5 3H38l-2-3.5c.67-.15 1.5-.91 1.5-2.35 0-1.8-1-3.15-3.5-3.15h-3Zm2 2v2h1.2c.52.03 1.3.06 1.3-1s-.78-1.03-1.3-1H33Z" fill="#55678B"/><path d="M39 34v-2c2.4 0 3 2 3 3v6h-2v-5.5c0-1.2-.67-1.5-1-1.5ZM43 34v-2c2.4 0 3 2 3 3v6h-2v-5.5c0-1.2-.67-1.5-1-1.5ZM28 11l10.32 9.12-.64.76-9.7-8.58L22 17.56V13.5h-1v4.7l-2.65 2.65-.7-.7L20 17.79V12.5h3v2.94L28 11Z" fill="#7F96BE"/></svg>