<!-- by TradingView --><svg width="56" height="56" viewBox="0 0 56 56" xmlns="http://www.w3.org/2000/svg"><path fill="#F0F3FA" d="M0 0h56v56H0z"/><path fill="#D12513" d="M13 13h30v30H13z"/><path d="M22.7 22a7.98 7.98 0 0 1 3.3-1.75v15.5a8 8 0 0 1-3.8-2.24l-2.83 2.83a11.96 11.96 0 0 0 16.53.7l-2.41-3.22A7.99 7.99 0 0 1 30 35.75v-15.5c1.18.3 2.25.87 3.16 1.63l2.6-3.03a11.95 11.95 0 0 0-15.88.32L22.7 22Zm-.7.7-2.83-2.82a11.96 11.96 0 0 0-.47 15.7l2.85-2.84A7.96 7.96 0 0 1 22 22.7Zm14.5-3.18-2.62 3.06a7.97 7.97 0 0 1 .3 10.5l2.45 3.26a11.96 11.96 0 0 0-.14-16.82Z" fill="#F0F3FA"/></svg>