<!-- by TradingView --><svg width="56" height="56" viewBox="0 0 56 56" xmlns="http://www.w3.org/2000/svg"><path fill="#F0F3FA" d="M0 0h56v56H0z"/><path d="M28 19.16 12 28v-5.8c0-1.9 1.02-3.66 2.71-4.68l4.78-2.89L28 19.16Z" fill="#466A9E"/><path d="M28 19.16 44 28v-5.8c0-1.9-1.02-3.66-2.71-4.68l-4.78-2.89L28 19.16Z" fill="#B2BAD5"/><path d="M28 10v9.14l-8.53-4.46L28 10Z" fill="#7084AD"/><path d="M28 10v9.14l8.53-4.46L28 10Z" fill="#94A1C2"/><path d="M28 36.84 44 28v5.8c0 1.9-1.02 3.66-2.71 4.68l-4.78 2.89L28 36.84Z" fill="#466A9E"/><path d="M28 36.84 12 28v5.8c0 1.9 1.02 3.66 2.71 4.68l4.78 2.89L28 36.84Z" fill="#B2BAD5"/><path d="M28 46v-9.14l8.53 4.46L28 46Z" fill="#7084AD"/><path d="M28 46v-9.14l-8.53 4.46L28 46Z" fill="#94A1C2"/><path d="M28 24.3v7.4L21.6 28l6.4-3.7Z" fill="#018BB3"/><path d="M28 24.3v7.4l6.4-3.7-6.4-3.7Z" fill="#02BCE1"/></svg>