<!-- by TradingView --><svg width="56" height="56" viewBox="0 0 56 56" fill="none" xmlns="http://www.w3.org/2000/svg">
<rect width="56" height="56" fill="url(#paint0_linear_5071_140063)"/>
<path d="M35 36H38.9071C40.2613 36 41 35.2286 41 34C41 32.7714 40.2613 32 38.9071 32H35V36ZM35 42H40.114C42.6752 42 44 40.7143 44 38.2285V35.6286H43.9117C43.1757 37.8 41.2622 39 38.9954 39H35.1178C35.0295 39 35 39.0026 35 39.0883V42ZM28.4857 33.8L32 37.2857V30.3143L28.4857 33.8ZM15.8859 42H32V41.2C32 39.8 32.6955 39.5169 33.8436 39.0883V39.0026H29.2806C29.0451 39.0026 28.9568 38.9741 28.7801 38.8026L26.3573 35.8561L23.9227 38.8312C23.805 38.9455 23.7166 39.0026 23.4811 39.0026H19.8013C19.5952 39.0026 19.5952 38.8883 19.713 38.774L24.4232 33.8286L19.6246 29.3143C19.5069 29.2 19.5363 29 19.7424 29H23.4517C23.6578 29 23.7461 29.1143 23.8638 29.2571L26.3573 31.7714L28.8979 29.2571C29.0156 29.1429 29.104 29 29.2806 29H38.966C41.2033 29 43.1757 29.8 43.9117 31.9714H44V17.7714C44 15.2857 42.6752 14 40.114 14H15.8859C13.3247 14 12 15.2857 12 17.7714V38.2571C12 40.7143 13.3247 42 15.8859 42Z" fill="white"/>
<defs>
<linearGradient id="paint0_linear_5071_140063" x1="10.4178" y1="9.71163" x2="68.1465" y2="76.0166" gradientUnits="userSpaceOnUse">
<stop stop-color="#1A1E21"/>
<stop offset="1" stop-color="#06060A"/>
</linearGradient>
</defs>
</svg>
