<!-- by TradingView --><svg width="56" height="56" viewBox="0 0 56 56" xmlns="http://www.w3.org/2000/svg"><path fill="#1A5468" d="M0 0h56v56H0z"/><path d="M8 22H7l3 13h1L8 22ZM10.5 22h-1L12 32l2-7-.5-2-1.5 5.5-1.5-6.5ZM15 30.5l-.5-2L13 35h1l1-4.5ZM15 22h-1l3 13h1l-3-13ZM17.5 22h-1L19 32l2.5-10h-1L19 28.5 17.5 22ZM24 22h-1l-3 13h1l3-13ZM26 22h-1v13h1V22ZM28 22h-1v6h4v-1h-3v-5ZM31 29h-4v6h1v-5h3v-1ZM33 22h-1v13h1V22ZM35 22h-1v13h1V22ZM41 28v-1h6v1h-6ZM41 30v-1h5.5v1H41Z" fill="#FEFFFF"/><path d="m47.98 28 .02.5a5.5 5.5 0 1 1-6-5.48v-1A6.5 6.5 0 1 0 48.98 28h-1Z" fill="#FEFFFF"/><path d="M45.96 29A3.5 3.5 0 1 1 42 25.04v-1.01A4.5 4.5 0 1 0 46.97 29h-1Z" fill="#FEFFFF"/></svg>